<svg width="32" height="32" viewBox="0 0 32 32" fill="none" xmlns="http://www.w3.org/2000/svg">
<g id="close_FILL0_wght400_GRAD0_opsz48 (12) 1">
<path id="Vector" d="M16 17.4L9.00005 24.4C8.80005 24.6 8.56672 24.7 8.30005 24.7C8.03338 24.7 7.80005 24.6 7.60005 24.4C7.40005 24.2 7.30005 23.9667 7.30005 23.7C7.30005 23.4334 7.40005 23.2 7.60005 23L14.6 16L7.60005 9.00005C7.40005 8.80005 7.30005 8.56672 7.30005 8.30005C7.30005 8.03338 7.40005 7.80005 7.60005 7.60005C7.80005 7.40005 8.03338 7.30005 8.30005 7.30005C8.56672 7.30005 8.80005 7.40005 9.00005 7.60005L16 14.6L23 7.60005C23.2 7.40005 23.4334 7.30005 23.7 7.30005C23.9667 7.30005 24.2 7.40005 24.4 7.60005C24.6 7.80005 24.7 8.03338 24.7 8.30005C24.7 8.56672 24.6 8.80005 24.4 9.00005L17.4 16L24.4 23C24.6 23.2 24.7 23.4334 24.7 23.7C24.7 23.9667 24.6 24.2 24.4 24.4C24.2 24.6 23.9667 24.7 23.7 24.7C23.4334 24.7 23.2 24.6 23 24.4L16 17.4Z" fill="black"/>
</g>
</svg>
